<?xml version="1.0" encoding="iso-8859-1"?>
<!-- Generator: Adobe Illustrator 18.0.0, SVG Export Plug-In . SVG Version: 6.00 Build 0)  -->
<!DOCTYPE svg PUBLIC "-//W3C//DTD SVG 1.1//EN" "http://www.w3.org/Graphics/SVG/1.1/DTD/svg11.dtd">
<svg version="1.1" id="Capa_1" xmlns="http://www.w3.org/2000/svg" xmlns:xlink="http://www.w3.org/1999/xlink" x="0px" y="0px"
	 viewBox="0 0 174.514 174.514" style="enable-background:new 0 0 174.514 174.514;" xml:space="preserve">
<g>
	<path style="fill:#F5888E;" d="M87.257,109.306c-33.768,0-61.142-4.57-61.145-10.209v55.838
		c0.002,5.639,27.376,10.209,61.145,10.209c33.769,0,61.145-4.571,61.145-10.21V99.097
		C148.4,104.735,121.025,109.306,87.257,109.306z"/>
	<path style="fill:#FFB6BD;" d="M134.456,92.605v4.873c0,4.018-21.132,7.275-47.199,7.275c-26.066,0-47.198-3.257-47.199-7.274v0
		v-4.873c-8.712,1.764-13.945,4.025-13.945,6.491v0.001v0c0.003,5.638,27.377,10.209,61.145,10.209
		c33.768,0,61.143-4.57,61.145-10.209v-0.001C148.402,96.631,143.168,94.37,134.456,92.605z"/>
	<path style="fill:#F5888E;" d="M87.257,96.457c26.067,0,47.199-3.257,47.199-7.274V51.016c-0.001,4.018-21.133,7.274-47.199,7.274
		c-26.066,0-47.197-3.257-47.199-7.274v38.167C40.059,93.201,61.191,96.457,87.257,96.457z"/>
	<path style="fill:#FFB6BD;" d="M87.257,58.29c26.066,0,47.198-3.257,47.199-7.274v0c0-2.136-5.975-4.057-15.488-5.388v2.982
		c0,2.7-14.197,4.888-31.711,4.888c-17.513,0-31.711-2.188-31.711-4.887v0v-2.982c-9.513,1.331-15.488,3.251-15.488,5.388v0v0
		C40.06,55.033,61.191,58.29,87.257,58.29z"/>
	<path style="fill:#F5888E;" d="M87.257,46.413c17.514,0,31.711-2.188,31.711-4.888V19.964c-0.449,1.937-3.256,4.823-9.306,5.04
		c-2.983,0.107-6.818-1.3-10.349-3.091c-3.718,0.236-7.787,0.367-12.057,0.367c-3.346,0-6.569-0.081-9.598-0.228
		c-3.454,1.725-7.169,3.057-10.076,2.953c-6.727-0.242-9.447-3.782-9.37-5.649c-1.711-0.601-2.668-1.264-2.668-1.962v24.132
		C55.547,44.225,69.744,46.413,87.257,46.413z"/>
	<path style="fill:#F5888E;" d="M118.968,18.832v-1.439c0,0.119-0.037,0.235-0.091,0.352
		C118.898,18.182,118.928,18.549,118.968,18.832z"/>
	<path style="fill:#FFB6BD;" d="M89.107,18.32c-1.229,0-2.337-0.537-3.184-1.394c-1.886,1.461-4.953,3.473-8.264,5.126
		c3.028,0.148,6.251,0.228,9.598,0.228c4.269,0,8.339-0.131,12.057-0.367c-2.912-1.477-5.612-3.213-7.458-4.584
		C91.078,17.949,90.133,18.32,89.107,18.32z"/>
	<path style="fill:#FFB6BD;" d="M118.968,17.393L118.968,17.393c0-0.138-0.046-0.273-0.118-0.408
		c0.006,0.271,0.016,0.523,0.027,0.76C118.931,17.629,118.968,17.512,118.968,17.393z"/>
	<path style="fill:#FFB6BD;" d="M58.214,19.356c0.004-0.091,0.007-0.182,0.024-0.265c0.132-0.64,0.18-2.078,0.17-3.728
		c-1.833,0.619-2.863,1.305-2.863,2.029v0C55.546,18.092,56.503,18.755,58.214,19.356z"/>
	<path style="fill:#87B6C1;" d="M62.27,6.842c2.888,2.117,16.066,3.461,22.367,4.255c0.112-0.344,0.251-0.671,0.421-0.979
		c-8.25-4.705-16.35-11.248-22.88-9.951c-0.342,0.067-0.64,0.149-0.938,0.229C57.94,2.278,59.794,5.027,62.27,6.842z"/>
	<path style="fill:#C6EDF7;" d="M58.238,19.091c-0.017,0.083-0.02,0.174-0.024,0.265c-0.078,1.867,2.643,5.407,9.37,5.649
		c2.907,0.104,6.622-1.227,10.076-2.953c3.311-1.653,6.378-3.666,8.264-5.126c-0.972-0.984-1.594-2.395-1.594-3.983
		c0-0.322,0.036-0.633,0.084-0.94c-2.961-0.217-7.058-0.232-12.159-0.516C63.83,11.019,59.62,9.063,57.73,6.968
		c0.099,0.306,0.187,0.58,0.234,0.803c0.233,1.08,0.429,4.673,0.445,7.593C58.418,17.014,58.37,18.451,58.238,19.091z"/>
	<path style="fill:#FFFCF8;" d="M72.254,11.488c5.102,0.284,9.198,0.299,12.159,0.516c0.05-0.314,0.128-0.614,0.224-0.907
		c-6.301-0.794-19.479-2.138-22.367-4.255c-2.476-1.814-4.33-4.563-1.03-6.446c-5.198,1.405-4.129,4.666-3.51,6.572
		C59.62,9.063,63.83,11.019,72.254,11.488z"/>
	<path style="fill:#87B6C1;" d="M114.976,6.842c2.476-1.814,4.33-4.563,1.03-6.446c-0.298-0.08-0.596-0.162-0.938-0.229
		c-6.342-1.259-14.164,4.88-22.164,9.545c0.261,0.388,0.48,0.809,0.642,1.269C100.131,10.174,112.224,8.859,114.976,6.842z"/>
	<path style="fill:#C6EDF7;" d="M104.992,11.488c-4.57,0.255-8.333,0.293-11.197,0.454c0.055,0.325,0.09,0.659,0.09,1.002
		c0,1.815-0.804,3.413-2.029,4.387c1.846,1.371,4.546,3.107,7.458,4.584c3.53,1.791,7.365,3.198,10.349,3.091
		c6.05-0.218,8.857-3.103,9.306-5.04c0.075-0.322,0.091-0.621,0.04-0.873c-0.015-0.072-0.027-0.168-0.04-0.259
		c-0.04-0.283-0.07-0.651-0.091-1.087c-0.012-0.237-0.021-0.489-0.027-0.76c-0.073-3.026,0.153-7.922,0.432-9.215
		c0.047-0.224,0.136-0.498,0.234-0.803C117.626,9.063,113.416,11.019,104.992,11.488z"/>
	<path style="fill:#FFFCF8;" d="M114.976,6.842c-2.752,2.018-14.846,3.333-21.431,4.139c0.107,0.308,0.194,0.627,0.249,0.96
		c2.865-0.161,6.627-0.199,11.197-0.454c8.423-0.469,12.634-2.424,14.524-4.52c0.619-1.906,1.688-5.167-3.51-6.572
		C119.306,2.278,117.452,5.027,114.976,6.842z"/>
	<path style="fill:#E3FAFF;" d="M84.413,12.003c-0.048,0.307-0.084,0.618-0.084,0.94c0,1.587,0.622,2.999,1.594,3.983
		c0.846,0.857,1.955,1.394,3.184,1.394c1.026,0,1.971-0.371,2.749-0.99c1.225-0.974,2.029-2.571,2.029-4.387
		c0-0.343-0.035-0.677-0.09-1.002c-0.056-0.333-0.142-0.652-0.249-0.96c-0.161-0.46-0.381-0.881-0.642-1.269
		c-0.873-1.295-2.241-2.145-3.797-2.145c-1.714,0-3.206,1.025-4.049,2.551c-0.17,0.307-0.309,0.634-0.421,0.979
		C84.541,11.389,84.463,11.689,84.413,12.003z"/>
	<path style="fill:#54292F;" d="M55.546,48.61c0.001,2.699,14.198,4.887,31.711,4.887c17.514,0,31.711-2.188,31.711-4.888v-2.982
		v-4.103c0,2.699-14.197,4.888-31.711,4.888c-17.513,0-31.711-2.188-31.711-4.887v4.102V48.61L55.546,48.61z"/>
	<path style="fill:#54292F;" d="M40.058,97.478c0.001,4.018,21.133,7.274,47.199,7.274c26.067,0,47.199-3.257,47.199-7.275v-4.873
		v-3.422c0,4.018-21.132,7.274-47.199,7.274c-26.066,0-47.198-3.257-47.199-7.274v3.422V97.478L40.058,97.478z"/>
	<path style="fill:#54292F;" d="M87.257,165.144c-33.768,0-61.143-4.57-61.145-10.209v9.369v0.001
		c0.002,5.638,27.376,10.209,61.145,10.209c33.769,0,61.145-4.571,61.145-10.21v-9.37
		C148.402,160.573,121.026,165.144,87.257,165.144z"/>
</g>
<g>
</g>
<g>
</g>
<g>
</g>
<g>
</g>
<g>
</g>
<g>
</g>
<g>
</g>
<g>
</g>
<g>
</g>
<g>
</g>
<g>
</g>
<g>
</g>
<g>
</g>
<g>
</g>
<g>
</g>
</svg>
