<?xml version="1.0" encoding="utf-8"?>
<!-- Generator: Adobe Illustrator 18.0.0, SVG Export Plug-In . SVG Version: 6.00 Build 0)  -->
<!DOCTYPE svg PUBLIC "-//W3C//DTD SVG 1.1//EN" "http://www.w3.org/Graphics/SVG/1.1/DTD/svg11.dtd">
<svg version="1.1" id="Layer_1" xmlns="http://www.w3.org/2000/svg" xmlns:xlink="http://www.w3.org/1999/xlink" x="0px" y="0px"
	 viewBox="0 0 248.5 335.1" enable-background="new 0 0 248.5 335.1" xml:space="preserve">
<g>
	<g>
		<path fill="#F0967C" d="M98.9,100.8c2.5-1.5,4.3-4.4,3.3-6.8l0,0c-0.9-2.4-3.8-2.8-6.6-2.4c-5.1,0.5-12.9,2.7-16.9,4.2
			c-4.4,1.7-12.3,5.1-16.6,8c-2.4,1.6-4.5,3.8-3.1,7.2c1.2,3,4.2,4,7.1,3.5c5.9-1,12.2-3.6,16.9-5.4C88.2,107,93.8,103.9,98.9,100.8
			z"/>
		<g>
			<path fill="#F0967C" d="M101.3,99.1c0,0,10.2-14.5,19.3-35.6l-5-5.5c0,0-12.9,20.8-21.7,35.4c0,0-1.9,4,1.2,6.4
				C97.6,101.7,101.3,99.1,101.3,99.1z"/>
		</g>
	</g>
	<path fill="#150D09" d="M110.8,83.7c-0.1,3.5-5.5,13-9.8,19.6c-11.6,17.9-32.4,35.4-32.4,35.4l-13.7-0.4c0,0,16.5-34.5,27.4-47.1
		c4.6-5.3,11.8-13,16.1-16.8C104.8,68.7,111,75.4,110.8,83.7z"/>
	<g>
		<path fill="#070100" d="M159.8,306.4l-17.2-0.1c-0.6,1.1-2.9,5.6-7.1,5.6l-7.4,0c-5.6,0-6.2,4.7-6.4,8.1l23.9,0.1l1.6-1.4l1.1,1.4
			l11.5,0L159.8,306.4z"/>
		<path fill="#1C1516" d="M135.4,311.8h26.1l-7.6-77.4c0,0,5.2-64.7,4.5-67.8l-34.1,0.2l6,68.5L135.4,311.8z"/>
	</g>
	<path fill="#1C1516" d="M54.5,306.4H37.3c-0.6,1.2-2.9,5.6-7.1,5.6h-7.4c-5.6,0-6.2,4.7-6.4,8.1h23.9l1.6-1.4l1.1,1.4h11.5V306.4z"
		/>
	<path fill="#24201E" d="M110,174.2l-42.3,69.2l-35,66.5l28.7,0.3l26.4-54.5l30.5-34.5c3.6-4.9,17.3-20.4,17.3-20.4
		c18.4-9.8,22.5-33.3,22-36.3L110,174.2z"/>
	<g>
		<g>
			<path fill="#F9AE97" d="M69.5,57.1c0.4-1.1,0.6-2,0.7-3.2c0.1-0.9,0.1-1.9,0.2-3.2c0,0-0.3-0.9-0.5-1c-1.1-1.9-3.5-5.3-4-9.1
				c-2.7-3.6-1.4-8.6-0.9-9.8c6.8-13.4,23-13.9,24.4-14c0,0,11-1.4,15.4,8.1c3.8,8.4,4.5,16.4,2,21.1c0.9,2.7,2.6,5.5,2.6,5.5
				c1.5,2.9,9.7,15.2,9.7,15.2l-18.6,9.6c-0.1-2.9-8.8-11-10.9-11.2c-0.8-0.1-4.7,1.9-5,2.1c-2.4,1.8-5.5,1.8-6.2-0.3
				c-0.3-0.8-0.5-1.3-0.8-1.6c-0.5-0.5-1-0.4-1.5-0.8c-0.2-0.2-0.1-0.4,0-0.5c-0.7-0.7-1.3-1.7-1.9-2.6c-0.6,0.2-0.8-0.3-0.8-0.6
				c0-0.3-0.2-1-0.3-1.3c-0.4-0.8-0.9-2-2.1-1.4C69,59.1,69.3,57.8,69.5,57.1z"/>
			<path fill="#6E1F2C" d="M89.7,16.2c-0.7-1.2,0.7-1.9,0.7-1.9c-1.4,0.1-2.5,2.2-2.5,2.2c-0.3-1.4-2.8-2.2-2.8-2.2
				c1.6,0.7,1.1,2.3,1.1,2.3c-9.2-0.7-18.7,5.2-21.7,14.1c-0.1,0.2-0.6,3.4-0.5,6.4c0,0.5,0,0.9,0.1,1.4c-1.1,0.1-2.3,0-3.2-0.5
				c0,0,2.9,5.8,7.1,4c2.5-0.9,4.7-4.1,6.9-6.5c4.2-4.5,8.2-3.6,10.9,0.3c1.9,2.7,2.3,3.5,4.8,7.1c0.9,1.3,1.2,1.7,2.5,3.7
				c0.4,0.6,1.1,0,1.8-0.3c0.9-0.4,0.3-1.4,0.2-1.8c-0.9-2.8,0-5,1-6.1c1.1-1.3,1.9-1,2.7-0.6c1.9,0.9,1.3,3.5,0.9,6.9
				c-0.3,2.6,5.2,3.3,7.3,2.3c1.6-0.7,2.4-13.7-1.4-22.1C101.1,14.8,89.7,16.2,89.7,16.2z"/>
			<path fill="#F9AE97" d="M94.6,41.3c-0.1,2.5,1,4.5,2.6,4.4c1.6,0,3-2.1,3.1-4.6c0.1-2.5-1-4.5-2.6-4.4
				C96.2,36.8,94.8,38.8,94.6,41.3z"/>
			<g>
				<g>
					<path fill="#8C3F42" d="M70.3,45.3c0,0,0.4-0.3,1.3-0.7c0.4-0.2,0.9-0.5,1.4-0.5c0.5-0.1,1.1-0.2,1.7-0.3c1.1-0.3,2.3,0,3.1,0
						c0.8,0.1,1.4,0.1,1.4,0.1c0.1,0,0.2,0.1,0.2,0.2c0,0.1-0.1,0.2-0.2,0.2l-0.1,0c0,0-0.5,0-1.4,0.1c-0.8,0.1-1.9,0-2.9,0.4
						c-0.5,0.2-1,0.3-1.4,0.5c-0.5,0.1-0.8,0.4-1.1,0.6c-0.6,0.3-1,0.7-1,0.7c-0.3,0.3-0.9,0.3-1.2,0c-0.3-0.3-0.3-0.9,0-1.2
						c0,0,0,0,0.1-0.1L70.3,45.3z"/>
				</g>
			</g>
			<path fill="#FCD6D5" d="M79.9,57.8c0,0,0.4-0.4,0.5,0.1c0.1,0.5-2,4.9-4.2,6.1L76,63.8c-0.7-0.7-1.1-1.4-1.7-2.4
				C74.6,61.4,78.2,60.3,79.9,57.8z"/>
			<path fill="#8C3F42" d="M73.2,49.4c-0.3,0.1-0.5,0.2-0.8,0.3c0.5-1,1.6-1.6,2.8-1.7c0.6,0,1.2,0.1,1.7,0.4
				c0.5,0.3,0.9,0.6,1.3,1.1c-1.1-0.3-2-0.6-2.9-0.5c0,0-0.1,0-0.1,0c0.1,0.1,0.2,0.2,0.3,0.4c0.3,0.6,0,1.3-0.6,1.6
				c-0.6,0.3-1.4,0-1.7-0.6C73,50,73,49.7,73.2,49.4z"/>
		</g>
		<g>
			<polygon fill="#FCD6D5" points="112.9,55.4 94.9,70.1 98.6,74.7 116.5,60.3 			"/>
			<path fill="#221B18" d="M140.5,121.3c-2-9.2-9.5-33.8-11-41c-2.4-11.2-13.3-20-13.3-20L98.5,74.7c0,0-4.7,11.3-2.7,20.6
				c4.3,20.2,10.5,81.7,10.5,81.7c3.9-0.4,43.6-0.7,54-12.3C160.3,164.7,143.3,134.2,140.5,121.3z"/>
			<path fill="#2E2726" d="M118.8,62.7l-3.7-5.4L98.5,74.7c-5.9,13.4-1.8,25.3-1.8,25.3l4.1,19.3l3.1-34l-3.9-2.4l4.6-0.3
				L118.8,62.7z"/>
		</g>
	</g>
	<g>
		<path fill="#2E2726" d="M119.2,78.6c14,5.3,36.8,27.9,36.8,27.9l-9.3,13.2c0,0-17.4-10.6-28.9-22.6c-3-3.2-4.1-4.9-6.2-8.5
			C108.6,83.6,111.4,75.7,119.2,78.6z"/>
		<g>
			<path fill="#F9AE97" d="M143.4,57.4c0,0-2.5-12.5-9.1-15.8c-1.4-0.7-3.7-0.1-4,1.8c-0.3,2.3,0.7,4.5,1,6.4
				c0.1,0.8-1.1,0.5-1.5-0.2c-0.4-0.7-0.9-1.2-1.4-1.1c-1,0.2-0.7,2.1-0.3,3.4c0.6,2.4,4.8,7.7,7.5,9.7L143.4,57.4z"/>
			
				<rect x="136.9" y="54.2" transform="matrix(0.4455 0.8953 -0.8953 0.4455 131.674 -91.6015)" fill="#FCD6D5" width="5.7" height="12.5"/>
			<path fill="#2E2726" d="M146.5,119.7c0,0,3.6-13.4-2.3-28.8c-3.4-8.7-6.6-14.5-10.4-26.5l12.4-6.6c12.6,30.4,12.4,30.3,17.6,42.8
				c1.4,3.3,1.4,13.2-4.9,17.9C156,120.6,146.5,119.7,146.5,119.7z"/>
		</g>
	</g>
	<path fill="#F0967C" d="M121.4,61.2c2.6,3.9,2.5,8.4-3.8,18.4c-0.5,0.8-1.9,2.2-3,1.2c-0.6-0.5-0.8-1.3-0.9-3.4c0-1,0.1-2.8,0.7-6
		c-0.9,1.5-2.3,3.8-3.2,3.2c-1.3-1.1,4.1-8.3,5.3-11.7c0.3-0.7,0.8-1,1-2l-2.1-3C115.5,57.8,119.9,58.9,121.4,61.2z"/>
	<g>
		<g>
			<path fill="#F8A488" d="M132.3,313.1c0,0-4.7-3.2-8.1-12.5l1.8-23.3l-11.5,0l0.7,18.7l10.5,17.2
				C125.8,313.3,134.1,319.4,132.3,313.1z"/>
			<path fill="#E9E9EA" d="M115.3,296.3c0,0,7.6,10.6,10.8,14.9c0.5,0.7,1.1,1.3,3,3.1c1.5,1.4,3.6,0.5,2.9-1.3c0,0,3.3,2.7,6.4,2.9
				c0.9,0.1,2.4,0.9,2.4,2.1c0,0.9-0.5,2.1-2.8,2.1c-1.7,0-8.5,0.1-11.2,0c-2-0.1-4.2-2-5.8-4.6c-2.3-3.4-5.9-10.1-5.9-10.1v14.9
				h-1.8c0,0,0-6.2,0-8.4c0-1.6-3.1-5.1-3.1-9.3C110.3,297.1,115.3,296.3,115.3,296.3z"/>
		</g>
		<g>
			<path fill="#F8A488" d="M228,276c0,0-5.7,0.2-13.9-5.3l-12.3-19.8l-9.2,6.9l11.7,14.6l18.6,7.7C222.8,280,233.1,280,228,276z"/>
			<path fill="#E9E9EA" d="M204.2,272.5c0,0,12.4,4,17.5,5.6c0.8,0.2,1.7,0.4,4.2,0.7c2,0.2,3.2-1.7,1.6-2.8c0,0,4.2,0.2,6.8-1.4
				c0.8-0.5,2.5-0.7,3.2,0.2c0.5,0.7,0.8,2-1,3.3c-1.4,1-6.8,5.1-9.1,6.6c-1.7,1.2-4.6,0.8-7.4-0.2c-3.9-1.4-10.7-4.7-10.7-4.7
				l8.8,12l-1.4,1.1c0,0-3.7-5-5-6.8c-0.9-1.3-5.5-2.3-8-5.7C200.6,276.1,204.2,272.5,204.2,272.5z"/>
		</g>
		<path fill="#FCD6D5" d="M113,152.6c0,0,60.3,36.5,97.3,110.2c0,0-41.3,39.5-84.9,50.2c-24.2,5.9-55.3,13.5-78.8-2.2
			c0,0,20.8-18.4,24.1-36.9c4.7-26.4,4.1-51.7,3.9-69.4c-0.2-14.9,2.9-31.2,15.2-38.4L113,152.6z"/>
	</g>
	<g>
		<g>
			<path fill="#F8A488" d="M89.2,100.4L89.2,100.4L89.2,100.4L89.2,100.4c0,0-7.2-1.4-12.6-1.2c-7,0.2-11.3-3.6-11.7-4.1
				c-0.9-1,0-0.1-1.7-2.1c-3-3.6-4.7-9-4.7-9l-13.7,8.7c0,0,3.7,2,5.3,4.5c2.6,4.2,5.1,7.3,6.1,13.1c0.9,5,4.5,12.9,6,14.6l0.3,0.4
				l27.6-23.7L89.2,100.4L89.2,100.4z"/>
			<path fill="#FCD6D5" d="M89.9,166.1l23.2-13.3l-17.7-36c2.8-11.4-5.9-16.4-5.9-16.4l-28,24.1c1.6,2.9,6.5,8.8,12.6,13.8
				C87.4,149.2,89.7,163.4,89.9,166.1z"/>
			<g>
				<path fill="#FCD6D5" d="M76.1,99.9c0.4,0.4,1,0.5,1.4,0.1c0.4-0.4,0.5-1,0.1-1.4c-0.4-0.4-1-0.5-1.4-0.1
					C75.8,98.9,75.7,99.5,76.1,99.9z"/>
				<path fill="#FCD6D5" d="M74.4,101c0.4,0.4,1,0.5,1.4,0.1c0.4-0.4,0.5-1,0.1-1.4c-0.4-0.4-1-0.5-1.4-0.1
					C74.1,100,74.1,100.6,74.4,101z"/>
				<path fill="#FCD6D5" d="M72.6,102c0.4,0.4,1,0.5,1.4,0.1c0.4-0.4,0.5-1,0.1-1.4c-0.4-0.4-1-0.5-1.4-0.1
					C72.3,101,72.2,101.6,72.6,102z"/>
				<path fill="#FCD6D5" d="M70.8,102.8c0.4,0.4,1,0.5,1.4,0.1c0.4-0.4,0.5-1,0.1-1.4c-0.4-0.4-1-0.5-1.4-0.1
					C70.5,101.8,70.5,102.4,70.8,102.8z"/>
				<path fill="#FCD6D5" d="M68.9,103.6c0.4,0.4,1,0.5,1.4,0.1c0.4-0.4,0.5-1,0.1-1.4c-0.4-0.4-1-0.5-1.4-0.1
					C68.6,102.5,68.6,103.2,68.9,103.6z"/>
				<path fill="#FCD6D5" d="M67,104.3c0.4,0.4,1,0.5,1.4,0.1c0.4-0.4,0.5-1,0.1-1.4c-0.4-0.4-1-0.5-1.4-0.1
					C66.7,103.2,66.7,103.8,67,104.3z"/>
				<path fill="#FCD6D5" d="M65.1,104.6c0.4,0.4,1,0.5,1.4,0.1c0.4-0.4,0.5-1,0.1-1.4c-0.4-0.4-1-0.5-1.4-0.1
					C64.8,103.6,64.8,104.2,65.1,104.6z"/>
				<path fill="#FCD6D5" d="M63.3,105c0.4,0.4,1,0.5,1.4,0.1c0.4-0.4,0.5-1,0.1-1.4c-0.4-0.4-1-0.5-1.4-0.1
					C63,103.9,62.9,104.5,63.3,105z"/>
				<path fill="#FCD6D5" d="M61.3,105.2c0.4,0.4,1,0.5,1.4,0.1c0.4-0.4,0.5-1,0.1-1.4c-0.4-0.4-1-0.5-1.4-0.1
					C61,104.1,60.9,104.8,61.3,105.2z"/>
				<path fill="#FCD6D5" d="M59.4,105.1c0.4,0.4,1,0.5,1.4,0.1c0.4-0.4,0.5-1,0.1-1.4c-0.4-0.4-1-0.5-1.4-0.1
					C59.1,104.1,59,104.7,59.4,105.1z"/>
				<path fill="#FCD6D5" d="M57.6,105.2c0.4,0.4,1,0.5,1.4,0.1c0.4-0.4,0.5-1,0.1-1.4c-0.4-0.4-1-0.5-1.4-0.1
					C57.3,104.1,57.2,104.7,57.6,105.2z"/>
				<path fill="#FCD6D5" d="M55.7,105.3c0.4,0.4,1,0.5,1.4,0.1c0.4-0.4,0.5-1,0.1-1.4c-0.4-0.4-1-0.5-1.4-0.1
					C55.3,104.3,55.3,104.9,55.7,105.3z"/>
				<path fill="#FCD6D5" d="M53.7,105.2c0.4,0.4,1,0.5,1.4,0.1c0.4-0.4,0.5-1,0.1-1.4c-0.4-0.4-1-0.5-1.4-0.1
					C53.4,104.1,53.3,104.8,53.7,105.2z"/>
			</g>
		</g>
		<g>
			<path fill="#F8A488" d="M52.6,66.5c2.9,1.9,4.9,1.8,6.8,1.3c0.8-0.2,1.4,0.3,1.2,0.8c-0.6,1.4,0.5,2.7,1,3.3
				c0.8,0.8,0.4,1.5,1.2,1.9c0.3,0.2,0.6,1.1,0.9,1.1c0.5,0.1,1.2,0.2,1,0.8c0,0-0.1,1.1,2.1,2.4c1.9,1.1,1.3,4.2-1.1,6.1
				c-1.5,1.2-7.9,6.4-9.5,7.7c-0.6,0.5-4.7,4.1-9.8,7.4c-1.8,0.7-3.5,1.1-5.2,1.4c-8,2.6-24.5-5.2-22.5-23.6
				c0.5-4.8,8.1-13.2,14.8-16.8c4.3-2.4,7.5-1.5,10-0.6c3.8,1.4,6.7,4.5,8.4,6.1L52.6,66.5z"/>
			<g>
				<g>
					<path fill="#AF5657" d="M49.9,66.7c0,0-0.4,0.2-1.1,0.6c-0.6,0.4-1.4,1.1-2,1.9c-0.3,0.4-0.6,0.8-0.8,1.3
						c-0.2,0.5-0.4,0.9-0.5,1.3c-0.2,0.8-0.3,1.3-0.3,1.3l0,0.1c0,0.1-0.2,0.2-0.3,0.2c-0.1,0-0.2-0.1-0.2-0.2c0,0,0-0.6,0.1-1.4
						c0-0.4,0.2-0.9,0.3-1.5c0.1-0.6,0.4-1.1,0.6-1.6c0.5-1.1,1.4-2,2-2.6C48.4,65.3,49,65,49,65c0.5-0.2,1-0.1,1.3,0.4
						C50.5,65.9,50.3,66.5,49.9,66.7z"/>
				</g>
			</g>
			<path fill="#FCD6D5" d="M62.5,73.4c0,0,1,0.7,1.6,1.8l-3.9,1.8L62.5,73.4z"/>
			<path fill="#F37978" d="M61.6,71.9c-0.3,0.3-0.4,0.5-0.6,1.4c-0.1,0.6-1.1,2.8-2,4c-0.2,0.2,0,0.6,0.3,0.4
				c3.1-1.8,3.8-4.8,3.8-4.8s0.2-1-0.4-1.2C62.1,71.5,61.9,71.7,61.6,71.9z"/>
			<path fill="#F37978" d="M64.4,74.3c-0.4,0.1-0.6,0.2-1.4,0.8c-0.5,0.4-2.5,1.7-3.9,2.1c-0.3,0.1-0.3,0.5,0,0.5
				c3.6,0.3,5.9-1.8,5.9-1.8s0.7-0.7,0.3-1.3C65.1,74.3,64.8,74.3,64.4,74.3z"/>
			<path fill="#E87F73" d="M52.9,69.4c-1.2-0.7-2.8-0.7-4.3,1.3c-1.3,1.6-0.4,3.4,0.7,4.4c0,0,0.4-2,1.2-3.3
				C51.5,70.1,52.9,69.4,52.9,69.4z"/>
			
				<radialGradient id="SVGID_1_" cx="-2641.0349" cy="1173.6285" r="4.2821" gradientTransform="matrix(0.6121 -0.7908 0.7908 0.6121 741.42 -2727.761)" gradientUnits="userSpaceOnUse">
				<stop  offset="0" style="stop-color:#F69080"/>
				<stop  offset="1" style="stop-color:#F8A488"/>
			</radialGradient>
			<path fill="url(#SVGID_1_)" d="M57.3,76.6c0.9,1.6-0.3,4-2.7,5.4c-2.4,1.4-5.1,1.3-6-0.3c-0.9-1.6,0.3-4,2.7-5.4
				C53.7,74.9,56.4,75,57.3,76.6z"/>
			<path fill="#8C3F42" d="M42.1,55.6c-1,1.2-5.4,2.7-5.5,2.7c-1.2,0.3-2.6,0.9-4.2,1.8c-17.2,10.1-16.6,25-10.2,33.3
				c-0.9,1-1.8,2.6-1.6,4.8c0.1,1.1,0.6,2.1,1.2,3.1c0.1,0.9,0.3,1.7,0.7,2.4c0.4,0.7,1,1.4,1.7,1.8c-0.2,1.2,0,3.1,2.2,5.2
				c3.4,3.2,6.2,2.3,7.9,0.9c1,0.2,2,0.3,2.9,0.1c0.6-0.1,1.2-0.4,1.8-0.7c1.5,0.3,3.3,0.1,4.8-2.1c2.7-3.8,1.1-7.6,0.4-8.8
				c0.3-0.2,0.6-0.3,0.9-0.5c0.2,0.4,0.3,0.8,0.4,1.3c0.2,0.7,0.2,1.4,0.2,2.2c0.2-0.7,0.3-1.5,0.2-2.3c0-0.4-0.1-0.8-0.1-1.2
				c0.1,0.1,0.2,0.3,0.3,0.4c0.3,0.5,0.6,1.1,0.8,1.7c0.4,1.2,0.7,2.5,0.8,3.8c0.1-1.3,0-2.6-0.3-3.9c-0.2-0.7-0.3-1.3-0.6-1.9
				c-0.2-0.4-0.4-0.8-0.6-1.2c0.6-1.4,0.3-4.6-1.4-6.5c-3.1-3.3-6.5-4.6-6.5-4.6c3-3.4,6.4-6.9,3.8-14c-1.9-5.1-4-11-0.2-12.7
				c0.4-0.2,0.6-0.3,0.9-0.5c0,0,0.1,0,0.1,0C46.7,57.8,43.1,54.3,42.1,55.6z M24.2,105.4c-0.6-0.5-1-1.1-1.2-1.8
				c-0.1-0.3-0.2-0.7-0.2-1c0.9,1.1,1.8,1.9,1.8,1.9S24.4,104.8,24.2,105.4z M37.1,111c-0.6-0.1-1.1-0.2-1.6-0.5
				c0.4-0.5,0.6-0.9,0.6-0.9s1,0.9,2.3,1.3C38,111,37.6,111,37.1,111z"/>
			<g>
				<path fill="#FCD6D5" d="M23.2,92c-0.2-0.1-0.6,0.2-1,0.8c-0.1,0.1-0.1,0.2-0.2,0.3c0-0.1,0-0.2,0-0.4c-0.1-0.7-0.3-1.2-0.5-1.2
					c-0.2,0-0.3,0.6-0.2,1.3c0,0.1,0,0.2,0.1,0.4c-0.1-0.1-0.2-0.2-0.3-0.2c-0.5-0.4-1.1-0.6-1.2-0.5c-0.1,0.2,0.2,0.6,0.8,1
					c0.1,0.1,0.2,0.2,0.3,0.2c-0.1,0-0.2,0-0.4,0c-0.7,0.1-1.2,0.3-1.2,0.5c0,0.2,0.6,0.3,1.3,0.2c0.1,0,0.2,0,0.4-0.1
					c-0.1,0.1-0.2,0.2-0.2,0.3c-0.4,0.5-0.6,1.1-0.5,1.2c0.2,0.1,0.6-0.2,1-0.8c0.1-0.1,0.1-0.2,0.2-0.3c0,0.1,0,0.2,0,0.4
					c0.1,0.7,0.3,1.2,0.5,1.2c0.2,0,0.3-0.6,0.2-1.3c0-0.1,0-0.2-0.1-0.3c0.1,0.1,0.2,0.2,0.3,0.2c0.5,0.4,1.1,0.6,1.2,0.5
					c0.1-0.1-0.2-0.6-0.8-1c-0.1-0.1-0.2-0.1-0.3-0.2c0.1,0,0.2,0,0.4,0c0.7-0.1,1.2-0.3,1.2-0.5c0-0.2-0.6-0.3-1.3-0.2
					c-0.1,0-0.2,0-0.4,0.1c0.1-0.1,0.2-0.2,0.2-0.3C23.2,92.7,23.4,92.1,23.2,92z"/>
				<path fill="#FCD6D5" d="M27.9,94.9c0-0.2-0.6-0.2-1.2,0c-0.1,0-0.2,0.1-0.3,0.1c0.1-0.1,0.1-0.2,0.2-0.3
					c0.3-0.6,0.4-1.1,0.2-1.2c-0.2-0.1-0.5,0.3-0.8,0.8c-0.1,0.1-0.1,0.2-0.1,0.3c0-0.1-0.1-0.2-0.1-0.3c-0.2-0.6-0.5-1-0.6-1
					c-0.2,0.1-0.2,0.6,0,1.2c0,0.1,0.1,0.2,0.1,0.3c-0.1-0.1-0.2-0.1-0.3-0.2c-0.5-0.3-1.1-0.4-1.1-0.2c-0.1,0.2,0.3,0.5,0.8,0.8
					c0.1,0.1,0.2,0.1,0.3,0.1c-0.1,0-0.2,0-0.3,0.1c-0.6,0.2-1,0.5-1,0.6c0,0.2,0.6,0.1,1.2,0c0.1,0,0.2-0.1,0.3-0.1
					c-0.1,0.1-0.1,0.2-0.2,0.3c-0.3,0.5-0.4,1.1-0.2,1.1c0.2,0.1,0.5-0.3,0.8-0.8c0.1-0.1,0.1-0.2,0.1-0.3c0,0.1,0.1,0.2,0.1,0.3
					c0.2,0.6,0.5,1,0.6,1c0.2-0.1,0.2-0.6,0-1.2c0-0.1-0.1-0.2-0.1-0.3c0.1,0.1,0.2,0.1,0.3,0.2c0.6,0.3,1.1,0.4,1.1,0.2
					c0.1-0.2-0.3-0.5-0.8-0.8c-0.1-0.1-0.2-0.1-0.3-0.1c0.1,0,0.2,0,0.3-0.1C27.5,95.3,27.9,95,27.9,94.9z"/>
				<path fill="#FCD6D5" d="M24.1,97c0-0.1-0.4-0.1-0.9,0c-0.1,0-0.2,0.1-0.2,0.1c0-0.1,0.1-0.1,0.1-0.2c0.2-0.4,0.3-0.8,0.2-0.9
					c-0.1-0.1-0.4,0.2-0.6,0.6c0,0.1-0.1,0.1-0.1,0.2c0-0.1,0-0.2-0.1-0.2c-0.1-0.4-0.4-0.8-0.5-0.7c-0.1,0-0.1,0.4,0,0.9
					c0,0.1,0.1,0.2,0.1,0.2c-0.1,0-0.1-0.1-0.2-0.1c-0.4-0.2-0.8-0.3-0.9-0.2c-0.1,0.1,0.2,0.4,0.6,0.6c0.1,0,0.2,0.1,0.2,0.1
					c-0.1,0-0.2,0-0.2,0.1C21.3,97.7,21,97.9,21,98c0,0.1,0.4,0.1,0.9,0c0.1,0,0.2-0.1,0.2-0.1c0,0.1-0.1,0.1-0.1,0.2
					c-0.2,0.4-0.3,0.8-0.2,0.9c0.1,0.1,0.4-0.2,0.6-0.6c0-0.1,0.1-0.2,0.1-0.2c0,0.1,0,0.2,0.1,0.2c0.1,0.4,0.4,0.8,0.5,0.7
					c0.1,0,0.1-0.4,0-0.9c0-0.1-0.1-0.2-0.1-0.2c0.1,0,0.1,0.1,0.2,0.1c0.4,0.2,0.8,0.3,0.9,0.2c0.1-0.1-0.2-0.4-0.6-0.6
					c-0.1,0-0.2-0.1-0.2-0.1c0.1,0,0.2,0,0.2-0.1C23.9,97.4,24.2,97.2,24.1,97z"/>
				<path fill="#FCD6D5" d="M27.1,91.6c-0.1-0.2-0.5-0.1-1.1,0c-0.1,0-0.2,0.1-0.3,0.1c0.1-0.1,0.1-0.2,0.2-0.3
					c0.3-0.5,0.4-1,0.2-1.1c-0.1-0.1-0.5,0.3-0.8,0.8c-0.1,0.1-0.1,0.2-0.1,0.3c0-0.1-0.1-0.2-0.1-0.3c-0.2-0.6-0.4-1-0.6-0.9
					c-0.2,0-0.1,0.5,0,1.1c0,0.1,0.1,0.2,0.1,0.3c-0.1-0.1-0.2-0.1-0.3-0.2c-0.5-0.3-1-0.4-1.1-0.2c-0.1,0.2,0.3,0.5,0.8,0.8
					c0.1,0.1,0.2,0.1,0.3,0.1c-0.1,0-0.2,0-0.3,0.1c-0.6,0.2-1,0.4-0.9,0.6c0.1,0.2,0.5,0.1,1.1,0c0.1,0,0.2-0.1,0.3-0.1
					c-0.1,0.1-0.1,0.2-0.2,0.3c-0.3,0.5-0.4,1-0.2,1.1c0.2,0.1,0.5-0.3,0.8-0.8c0-0.1,0.1-0.2,0.1-0.3c0,0.1,0,0.2,0.1,0.3
					c0.2,0.6,0.4,1,0.6,0.9c0.2,0,0.2-0.5,0-1.1c0-0.1-0.1-0.2-0.1-0.3c0.1,0.1,0.2,0.1,0.3,0.2c0.5,0.3,1,0.4,1.1,0.2
					c0.1-0.1-0.3-0.5-0.8-0.8c-0.1-0.1-0.2-0.1-0.3-0.1c0.1,0,0.2,0,0.3-0.1C26.7,92,27.1,91.8,27.1,91.6z"/>
				<path fill="#FCD6D5" d="M23.7,90.1c0-0.1-0.4-0.1-0.8,0c-0.1,0-0.1,0.1-0.2,0.1c0-0.1,0.1-0.1,0.1-0.2c0.2-0.4,0.3-0.7,0.2-0.8
					c-0.1-0.1-0.4,0.2-0.6,0.6c-0.1,0.1-0.1,0.1-0.1,0.2c0-0.1,0-0.1-0.1-0.2c-0.1-0.4-0.3-0.7-0.4-0.7c-0.1,0-0.1,0.4,0,0.8
					c0,0.1,0,0.1,0.1,0.2c-0.1,0-0.1-0.1-0.2-0.1c-0.4-0.2-0.7-0.3-0.8-0.2c-0.1,0.1,0.2,0.4,0.6,0.6c0.1,0,0.1,0.1,0.2,0.1
					c-0.1,0-0.1,0-0.2,0.1c-0.4,0.1-0.7,0.3-0.7,0.4c0,0.1,0.4,0.1,0.8,0c0.1,0,0.1-0.1,0.2-0.1c0,0.1-0.1,0.1-0.1,0.2
					c-0.2,0.4-0.3,0.7-0.2,0.8c0.1,0.1,0.4-0.2,0.6-0.6c0-0.1,0.1-0.1,0.1-0.2c0,0.1,0,0.1,0.1,0.2c0.1,0.4,0.3,0.7,0.4,0.7
					c0.1,0,0.1-0.4,0-0.8c0-0.1,0-0.1-0.1-0.2c0.1,0,0.1,0.1,0.2,0.1c0.4,0.2,0.7,0.3,0.8,0.2c0.1-0.1-0.2-0.4-0.6-0.6
					c-0.1,0-0.1-0.1-0.2-0.1c0.1,0,0.1,0,0.2-0.1C23.5,90.4,23.8,90.2,23.7,90.1z"/>
				<path fill="#FCD6D5" d="M21.5,95.4c0-0.1-0.4-0.1-0.9,0c-0.1,0-0.2,0.1-0.2,0.1c0.1-0.1,0.1-0.1,0.1-0.2
					c0.2-0.4,0.3-0.8,0.2-0.9c-0.1-0.1-0.4,0.2-0.6,0.6c0,0.1-0.1,0.1-0.1,0.2c0-0.1,0-0.2-0.1-0.2c-0.1-0.5-0.4-0.8-0.5-0.7
					c-0.1,0-0.1,0.4,0,0.9c0,0.1,0.1,0.2,0.1,0.2c-0.1,0-0.1-0.1-0.2-0.1c-0.4-0.2-0.8-0.3-0.9-0.2c-0.1,0.1,0.2,0.4,0.6,0.6
					c0.1,0,0.2,0.1,0.2,0.1c-0.1,0-0.2,0-0.2,0.1c-0.4,0.1-0.8,0.3-0.7,0.5c0,0.1,0.4,0.1,0.9,0c0.1,0,0.2-0.1,0.2-0.1
					c-0.1,0.1-0.1,0.1-0.1,0.2c-0.2,0.4-0.3,0.8-0.2,0.9c0.1,0.1,0.4-0.2,0.6-0.6c0.1-0.1,0.1-0.2,0.1-0.2c0,0.1,0,0.2,0.1,0.2
					c0.1,0.5,0.4,0.8,0.5,0.7c0.1,0,0.1-0.4,0-0.9c0-0.1-0.1-0.2-0.1-0.2c0.1,0,0.1,0.1,0.2,0.1c0.4,0.2,0.8,0.3,0.9,0.2
					c0.1-0.1-0.2-0.4-0.6-0.6c-0.1,0-0.2-0.1-0.2-0.1c0.1,0,0.2,0,0.2-0.1C21.2,95.7,21.5,95.5,21.5,95.4z"/>
			</g>
			<path fill="#F8A488" d="M40.4,84.9c2,0,3.7,1.3,3.7,2.7c0,1.5-1.7,2.6-3.8,2.6c-2.1,0-3.7-1.3-3.7-2.7
				C36.7,86,38.4,84.8,40.4,84.9z"/>
			<path fill="#FCD6D5" d="M43.7,87.7c0.5,0.4,0.6,1.1,0.2,1.7c-0.4,0.5-1.1,0.6-1.7,0.2c-0.5-0.4-0.6-1.1-0.2-1.7
				C42.4,87.4,43.2,87.3,43.7,87.7z"/>
			<path fill="#8C3F42" d="M47.9,75.7c0.8-0.5,1.1-1.3,1.3-2.1c0-0.8,0.2-1.5,0.7-2.2c0.8-1.1,2.1-2,3.4-2c-0.3,0.2-0.5,0.4-0.8,0.6
				c0.2,0,0.5,0.1,0.7,0.2c0.5,0.4,0.6,1.2,0.2,1.7c-0.4,0.6-1.2,0.7-1.7,0.3c-0.3-0.2-0.4-0.6-0.4-1c-0.2,0.2-0.4,0.4-0.6,0.7
				c-0.7,0.9-0.9,2.1-1.1,3.4c-0.1-0.2-0.2-0.5-0.2-0.8C48.9,75.1,48.5,75.5,47.9,75.7z"/>
		</g>
	</g>
	<g>
		<path fill="#F8A488" d="M99.8,105.9c2.5-1.4,4.5-4.2,3.6-6.6l0,0c-0.8-2.5-3.6-2.9-6.5-2.7c-5.2,0.3-13,2.1-17.1,3.5
			c-4.5,1.5-12.5,4.6-17,7.3c-2.5,1.5-4.6,3.6-3.4,7.1c1.1,3.1,4,4.2,6.9,3.8c6-0.8,12.4-3.1,17.1-4.7
			C88.8,111.7,94.6,108.8,99.8,105.9z"/>
		<g>
			<path fill="#F8A488" d="M102.2,104.3c0,0,15.4-17.3,25.4-38l-3.2-2.7c0,0-19.9,20.4-29.4,34.6c0,0-2,3.9,0.9,6.4
				C98.5,106.8,102.2,104.3,102.2,104.3z"/>
			<path fill="#F8A488" d="M127.2,67.2c0,0,7.8-3.9,10.8-15.4c0.2-0.9,0.3-2.9-1.2-3c-0.8,0-1.5,0.3-3.1,1.7c-0.8,0.7-2,2-3.9,4.6
				c0.5-1.7,1.2-4.3,0.1-4.5c-1.7-0.2-3.3,8.6-4.9,11.9c-0.4,0.7-0.5,1.4-1.2,2.2L127.2,67.2z"/>
		</g>
	</g>
	<g>
		<g>
			<path fill="#F9AB8B" d="M83.9,137.7c0,0,11.7-0.5,15.7-6c0.8-1.2,0.6-3.4-1.1-3.9c-2.1-0.7-4.2-0.1-6,0c-0.7,0-0.3-1.1,0.4-1.4
				c0.6-0.3,1.3-0.7,1.2-1.1c-0.1-0.9-1.8-0.9-3-0.8c-2.3,0.2-7.7,3.3-10,5.4L83.9,137.7z"/>
			<polygon fill="#FCD6D5" points="81.1,140.5 86.1,138.9 82.7,127.8 77.6,129.4 			"/>
		</g>
		<path fill="#150D09" d="M63.7,132.7c-3,0.7-10.6,2.7-8.3,9.2c1.7,4.7,6.2,5.2,11.3,4.1c5.4-1.2,16.2-5.2,16.2-5.2l-4.2-12.3
			C78.8,128.5,69.7,131.2,63.7,132.7z"/>
	</g>
</g>
</svg>
